<svg xmlns="http://www.w3.org/2000/svg" width="56" height="56" viewBox="0 0 56 56" fill="none">
<g clip-path="url(#clip0_73_3372)">
<path d="M50.1375 7.03289C43.8156 1.71727 34.0485 2.5157 28 8.67352C21.9516 2.5157 12.1844 1.70633 5.86251 7.03289C-2.36249 13.9563 -1.15936 25.2438 4.70314 31.2266L23.8875 50.772C24.9813 51.8876 26.4469 52.511 28 52.511C29.5641 52.511 31.0188 51.8985 32.1125 50.7829L51.2969 31.2376C57.1485 25.2548 58.3735 13.9673 50.1375 7.03289ZM47.5563 27.5407L28.3719 47.086C28.1094 47.3485 27.8906 47.3485 27.6281 47.086L8.44376 27.5407C4.45157 23.472 3.6422 15.772 9.2422 11.0579C13.4969 7.48133 20.0594 8.01726 24.1719 12.2063L28 16.111L31.8281 12.2063C35.9625 7.99539 42.525 7.48133 46.7578 11.047C52.3469 15.761 51.5156 23.5048 47.5563 27.5407Z" fill="#EE0202"/>
</g>
<defs>
<clipPath id="clip0_73_3372">
<rect width="56" height="56" fill="white"/>
</clipPath>
</defs>
</svg>