<svg width="100" height="100" viewBox="0 0 65 65" fill="none" xmlns="http://www.w3.org/2000/svg">
    <path d="M32.0001 36.5714C38.3119 36.5714 43.4287 31.4547 43.4287 25.1429C43.4287 18.831 38.3119 13.7143 32.0001 13.7143C25.6883 13.7143 20.5715 18.831 20.5715 25.1429C20.5715 31.4547 25.6883 36.5714 32.0001 36.5714Z" stroke="#000001" stroke-linecap="round" stroke-linejoin="round"/>
    <path d="M12.4801 54.4C14.5201 51.0515 17.3871 48.2841 20.8056 46.3638C24.2241 44.4435 28.0792 43.4348 32.0001 43.4348C35.9211 43.4348 39.7761 44.4435 43.1946 46.3638C46.6131 48.2841 49.4801 51.0515 51.5201 54.4" stroke="#000001" stroke-linecap="round" stroke-linejoin="round"/>
    <path d="M32.0001 61.7143C48.4108 61.7143 61.7143 48.4107 61.7143 32C61.7143 15.5892 48.4108 2.28571 32.0001 2.28571C15.5893 2.28571 2.28577 15.5892 2.28577 32C2.28577 48.4107 15.5893 61.7143 32.0001 61.7143Z" stroke="#000001" stroke-linecap="round" stroke-linejoin="round"/>
  </svg>